<?xml version="1.0" encoding="UTF-8" standalone="no"?>
<!DOCTYPE svg PUBLIC "-//W3C//DTD SVG 1.1//EN"
 "http://www.w3.org/Graphics/SVG/1.1/DTD/svg11.dtd">
<!-- Generated by graphviz version 2.47.0 (20210316.0004)
 -->
<!-- Title: dependencies Pages: 1 -->
<svg width="551pt" height="211pt"
 viewBox="0.00 0.00 551.00 211.00" xmlns="http://www.w3.org/2000/svg" xmlns:xlink="http://www.w3.org/1999/xlink">
<g id="graph0" class="graph" transform="scale(1 1) rotate(0) translate(4 207)">
<title>dependencies</title>
<polygon fill="white" stroke="transparent" points="-4,4 -4,-207 547,-207 547,4 -4,4"/>
<text text-anchor="start" x="250.51" y="-42.4" font-family="Times-12" font-weight="bold" font-size="14.00">Legend</text>
<polygon fill="#ffffb3" stroke="transparent" points="37.5,-10 37.5,-30 57.5,-30 57.5,-10 37.5,-10"/>
<text text-anchor="start" x="61.13" y="-15.4" font-family="Times-12" font-size="14.00"> &#160;Declarations</text>
<polygon fill="#8dd3c7" stroke="transparent" points="150.5,-10 150.5,-30 170.5,-30 170.5,-10 150.5,-10"/>
<text text-anchor="start" x="174.23" y="-15.4" font-family="Times-12" font-size="14.00"> &#160;Module</text>
<polygon fill="#80b1d3" stroke="transparent" points="236.5,-10 236.5,-30 256.5,-30 256.5,-10 236.5,-10"/>
<text text-anchor="start" x="260.28" y="-15.4" font-family="Times-12" font-size="14.00"> &#160;Bootstrap</text>
<polygon fill="#fdb462" stroke="transparent" points="333.5,-10 333.5,-30 353.5,-30 353.5,-10 333.5,-10"/>
<text text-anchor="start" x="357.17" y="-15.4" font-family="Times-12" font-size="14.00"> &#160;Providers</text>
<polygon fill="#fb8072" stroke="transparent" points="429.5,-10 429.5,-30 449.5,-30 449.5,-10 429.5,-10"/>
<text text-anchor="start" x="453.23" y="-15.4" font-family="Times-12" font-size="14.00"> &#160;Exports</text>
<g id="clust1" class="cluster">
<title>cluster_IamModule</title>
<polygon fill="none" stroke="black" stroke-dasharray="1,5" points="8,-70 8,-195 535,-195 535,-70 8,-70"/>
</g>
<g id="clust3" class="cluster">
<title>cluster_IamModule_imports</title>
<polygon fill="none" stroke="black" points="293,-78 293,-130 527,-130 527,-78 293,-78"/>
</g>
<g id="clust6" class="cluster">
<title>cluster_IamModule_providers</title>
<polygon fill="none" stroke="black" points="16,-78 16,-130 285,-130 285,-78 16,-78"/>
</g>
<!-- PasswordModule -->
<g id="node1" class="node">
<title>PasswordModule</title>
<polygon fill="#8dd3c7" stroke="black" points="518.7,-122 515.7,-126 494.7,-126 491.7,-122 405.3,-122 405.3,-86 518.7,-86 518.7,-122"/>
<text text-anchor="middle" x="462" y="-99.8" font-family="Times,serif" font-size="14.00">PasswordModule</text>
</g>
<!-- IamModule -->
<g id="node3" class="node">
<title>IamModule</title>
<polygon fill="#8dd3c7" stroke="black" points="321.82,-187 318.82,-191 297.82,-191 294.82,-187 240.18,-187 240.18,-151 321.82,-151 321.82,-187"/>
<text text-anchor="middle" x="281" y="-164.8" font-family="Times,serif" font-size="14.00">IamModule</text>
</g>
<!-- PasswordModule&#45;&gt;IamModule -->
<g id="edge1" class="edge">
<title>PasswordModule&#45;&gt;IamModule</title>
<path fill="none" stroke="black" d="M462,-122.11C462,-141.34 462,-169 462,-169 462,-169 332.07,-169 332.07,-169"/>
<polygon fill="black" stroke="black" points="332.07,-165.5 322.07,-169 332.07,-172.5 332.07,-165.5"/>
</g>
<!-- UserModule -->
<g id="node2" class="node">
<title>UserModule</title>
<polygon fill="#8dd3c7" stroke="black" points="386.98,-122 383.98,-126 362.98,-126 359.98,-122 301.02,-122 301.02,-86 386.98,-86 386.98,-122"/>
<text text-anchor="middle" x="344" y="-99.8" font-family="Times,serif" font-size="14.00">UserModule</text>
</g>
<!-- UserModule&#45;&gt;IamModule -->
<g id="edge2" class="edge">
<title>UserModule&#45;&gt;IamModule</title>
<path fill="none" stroke="black" d="M311.33,-122.11C311.33,-122.11 311.33,-140.99 311.33,-140.99"/>
<polygon fill="black" stroke="black" points="307.83,-140.99 311.33,-150.99 314.83,-140.99 307.83,-140.99"/>
</g>
<!-- AuthService -->
<g id="node4" class="node">
<title>AuthService</title>
<ellipse fill="#fdb462" stroke="black" cx="218" cy="-104" rx="59.11" ry="18"/>
<text text-anchor="middle" x="218" y="-99.8" font-family="Times,serif" font-size="14.00">AuthService</text>
</g>
<!-- AuthService&#45;&gt;IamModule -->
<g id="edge3" class="edge">
<title>AuthService&#45;&gt;IamModule</title>
<path fill="none" stroke="black" d="M258.82,-117.15C258.82,-117.15 258.82,-140.69 258.82,-140.69"/>
<polygon fill="black" stroke="black" points="255.32,-140.69 258.82,-150.69 262.32,-140.69 255.32,-140.69"/>
</g>
<!-- UserService -->
<g id="node5" class="node">
<title>UserService</title>
<ellipse fill="#fdb462" stroke="black" cx="82" cy="-104" rx="58.44" ry="18"/>
<text text-anchor="middle" x="82" y="-99.8" font-family="Times,serif" font-size="14.00">UserService</text>
</g>
<!-- UserService&#45;&gt;IamModule -->
<g id="edge4" class="edge">
<title>UserService&#45;&gt;IamModule</title>
<path fill="none" stroke="black" d="M82,-122.11C82,-141.34 82,-169 82,-169 82,-169 230.25,-169 230.25,-169"/>
<polygon fill="black" stroke="black" points="230.25,-172.5 240.25,-169 230.25,-165.5 230.25,-172.5"/>
</g>
</g>
</svg>
