<?xml version="1.0" encoding="UTF-8" standalone="no"?>
<!DOCTYPE svg PUBLIC "-//W3C//DTD SVG 1.1//EN"
 "http://www.w3.org/Graphics/SVG/1.1/DTD/svg11.dtd">
<!-- Generated by graphviz version 2.47.0 (20210316.0004)
 -->
<!-- Title: dependencies Pages: 1 -->
<svg width="630pt" height="211pt"
 viewBox="0.00 0.00 630.00 211.00" xmlns="http://www.w3.org/2000/svg" xmlns:xlink="http://www.w3.org/1999/xlink">
<g id="graph0" class="graph" transform="scale(1 1) rotate(0) translate(4 207)">
<title>dependencies</title>
<polygon fill="white" stroke="transparent" points="-4,4 -4,-207 626,-207 626,4 -4,4"/>
<text text-anchor="start" x="290.01" y="-42.4" font-family="Times-12" font-weight="bold" font-size="14.00">Legend</text>
<polygon fill="#ffffb3" stroke="transparent" points="77,-10 77,-30 97,-30 97,-10 77,-10"/>
<text text-anchor="start" x="100.63" y="-15.4" font-family="Times-12" font-size="14.00"> &#160;Declarations</text>
<polygon fill="#8dd3c7" stroke="transparent" points="190,-10 190,-30 210,-30 210,-10 190,-10"/>
<text text-anchor="start" x="213.73" y="-15.4" font-family="Times-12" font-size="14.00"> &#160;Module</text>
<polygon fill="#80b1d3" stroke="transparent" points="276,-10 276,-30 296,-30 296,-10 276,-10"/>
<text text-anchor="start" x="299.78" y="-15.4" font-family="Times-12" font-size="14.00"> &#160;Bootstrap</text>
<polygon fill="#fdb462" stroke="transparent" points="373,-10 373,-30 393,-30 393,-10 373,-10"/>
<text text-anchor="start" x="396.67" y="-15.4" font-family="Times-12" font-size="14.00"> &#160;Providers</text>
<polygon fill="#fb8072" stroke="transparent" points="469,-10 469,-30 489,-30 489,-10 469,-10"/>
<text text-anchor="start" x="492.73" y="-15.4" font-family="Times-12" font-size="14.00"> &#160;Exports</text>
<g id="clust1" class="cluster">
<title>cluster_ExpenseTrackerModule</title>
<polygon fill="none" stroke="black" stroke-dasharray="1,5" points="8,-70 8,-195 614,-195 614,-70 8,-70"/>
</g>
<g id="clust3" class="cluster">
<title>cluster_ExpenseTrackerModule_imports</title>
<polygon fill="none" stroke="black" points="380,-78 380,-130 606,-130 606,-78 380,-78"/>
</g>
<g id="clust6" class="cluster">
<title>cluster_ExpenseTrackerModule_providers</title>
<polygon fill="none" stroke="black" points="16,-78 16,-130 372,-130 372,-78 16,-78"/>
</g>
<!-- ExpenseModule -->
<g id="node1" class="node">
<title>ExpenseModule</title>
<polygon fill="#8dd3c7" stroke="black" points="598.48,-122 595.48,-126 574.48,-126 571.48,-122 491.52,-122 491.52,-86 598.48,-86 598.48,-122"/>
<text text-anchor="middle" x="545" y="-99.8" font-family="Times,serif" font-size="14.00">ExpenseModule</text>
</g>
<!-- ExpenseTrackerModule -->
<g id="node3" class="node">
<title>ExpenseTrackerModule</title>
<polygon fill="#8dd3c7" stroke="black" points="421.49,-187 418.49,-191 397.49,-191 394.49,-187 270.51,-187 270.51,-151 421.49,-151 421.49,-187"/>
<text text-anchor="middle" x="346" y="-164.8" font-family="Times,serif" font-size="14.00">ExpenseTrackerModule</text>
</g>
<!-- ExpenseModule&#45;&gt;ExpenseTrackerModule -->
<g id="edge1" class="edge">
<title>ExpenseModule&#45;&gt;ExpenseTrackerModule</title>
<path fill="none" stroke="black" d="M545,-122.11C545,-141.34 545,-169 545,-169 545,-169 431.52,-169 431.52,-169"/>
<polygon fill="black" stroke="black" points="431.52,-165.5 421.52,-169 431.52,-172.5 431.52,-165.5"/>
</g>
<!-- UserModule -->
<g id="node2" class="node">
<title>UserModule</title>
<polygon fill="#8dd3c7" stroke="black" points="473.98,-122 470.98,-126 449.98,-126 446.98,-122 388.02,-122 388.02,-86 473.98,-86 473.98,-122"/>
<text text-anchor="middle" x="431" y="-99.8" font-family="Times,serif" font-size="14.00">UserModule</text>
</g>
<!-- UserModule&#45;&gt;ExpenseTrackerModule -->
<g id="edge2" class="edge">
<title>UserModule&#45;&gt;ExpenseTrackerModule</title>
<path fill="none" stroke="black" d="M404.63,-122.11C404.63,-122.11 404.63,-140.99 404.63,-140.99"/>
<polygon fill="black" stroke="black" points="401.13,-140.99 404.63,-150.99 408.13,-140.99 401.13,-140.99"/>
</g>
<!-- ExpenseTrackerService -->
<g id="node4" class="node">
<title>ExpenseTrackerService</title>
<ellipse fill="#fdb462" stroke="black" cx="261" cy="-104" rx="102.95" ry="18"/>
<text text-anchor="middle" x="261" y="-99.8" font-family="Times,serif" font-size="14.00">ExpenseTrackerService</text>
</g>
<!-- ExpenseTrackerService&#45;&gt;ExpenseTrackerModule -->
<g id="edge3" class="edge">
<title>ExpenseTrackerService&#45;&gt;ExpenseTrackerModule</title>
<path fill="none" stroke="black" d="M317.24,-119.08C317.24,-119.08 317.24,-140.76 317.24,-140.76"/>
<polygon fill="black" stroke="black" points="313.74,-140.76 317.24,-150.76 320.74,-140.76 313.74,-140.76"/>
</g>
<!-- UserService -->
<g id="node5" class="node">
<title>UserService</title>
<ellipse fill="#fdb462" stroke="black" cx="82" cy="-104" rx="58.44" ry="18"/>
<text text-anchor="middle" x="82" y="-99.8" font-family="Times,serif" font-size="14.00">UserService</text>
</g>
<!-- UserService&#45;&gt;ExpenseTrackerModule -->
<g id="edge4" class="edge">
<title>UserService&#45;&gt;ExpenseTrackerModule</title>
<path fill="none" stroke="black" d="M82,-122.11C82,-141.34 82,-169 82,-169 82,-169 260.7,-169 260.7,-169"/>
<polygon fill="black" stroke="black" points="260.7,-172.5 270.7,-169 260.7,-165.5 260.7,-172.5"/>
</g>
</g>
</svg>
