<?xml version="1.0" encoding="UTF-8" standalone="no"?>
<!DOCTYPE svg PUBLIC "-//W3C//DTD SVG 1.1//EN"
 "http://www.w3.org/Graphics/SVG/1.1/DTD/svg11.dtd">
<!-- Generated by graphviz version 2.47.0 (20210316.0004)
 -->
<!-- Title: dependencies Pages: 1 -->
<svg width="504pt" height="428pt"
 viewBox="0.00 0.00 504.00 428.00" xmlns="http://www.w3.org/2000/svg" xmlns:xlink="http://www.w3.org/1999/xlink">
<g id="graph0" class="graph" transform="scale(1 1) rotate(0) translate(4 424)">
<title>dependencies</title>
<polygon fill="white" stroke="transparent" points="-4,4 -4,-424 500,-424 500,4 -4,4"/>
<text text-anchor="start" x="227.01" y="-42.4" font-family="Times-12" font-weight="bold" font-size="14.00">Legend</text>
<polygon fill="#ffffb3" stroke="transparent" points="14,-10 14,-30 34,-30 34,-10 14,-10"/>
<text text-anchor="start" x="37.63" y="-15.4" font-family="Times-12" font-size="14.00"> &#160;Declarations</text>
<polygon fill="#8dd3c7" stroke="transparent" points="127,-10 127,-30 147,-30 147,-10 127,-10"/>
<text text-anchor="start" x="150.73" y="-15.4" font-family="Times-12" font-size="14.00"> &#160;Module</text>
<polygon fill="#80b1d3" stroke="transparent" points="213,-10 213,-30 233,-30 233,-10 213,-10"/>
<text text-anchor="start" x="236.78" y="-15.4" font-family="Times-12" font-size="14.00"> &#160;Bootstrap</text>
<polygon fill="#fdb462" stroke="transparent" points="310,-10 310,-30 330,-30 330,-10 310,-10"/>
<text text-anchor="start" x="333.67" y="-15.4" font-family="Times-12" font-size="14.00"> &#160;Providers</text>
<polygon fill="#fb8072" stroke="transparent" points="406,-10 406,-30 426,-30 426,-10 406,-10"/>
<text text-anchor="start" x="429.73" y="-15.4" font-family="Times-12" font-size="14.00"> &#160;Exports</text>
<g id="clust7" class="cluster">
<title>cluster_AppModule</title>
<polygon fill="none" stroke="black" stroke-dasharray="1,5" points="97,-222 97,-412 465,-412 465,-222 97,-222"/>
</g>
<g id="clust9" class="cluster">
<title>cluster_AppModule_imports</title>
<polygon fill="none" stroke="black" points="105,-230 105,-347 457,-347 457,-230 105,-230"/>
</g>
<g id="clust13" class="cluster">
<title>cluster_ExpenseManagerModule</title>
<polygon fill="none" stroke="black" stroke-dasharray="1,5" points="85,-146 85,-214 327,-214 327,-146 85,-146"/>
</g>
<g id="clust15" class="cluster">
<title>cluster_ExpenseManagerModule_imports</title>
<polygon fill="none" stroke="black" points="93,-154 93,-206 319,-206 319,-154 93,-154"/>
</g>
<g id="clust19" class="cluster">
<title>cluster_ExpenseModule</title>
<polygon fill="none" stroke="black" stroke-dasharray="1,5" points="12,-70 12,-138 258,-138 258,-70 12,-70"/>
</g>
<g id="clust24" class="cluster">
<title>cluster_ExpenseModule_providers</title>
<polygon fill="none" stroke="black" points="20,-78 20,-130 250,-130 250,-78 20,-78"/>
</g>
<g id="clust31" class="cluster">
<title>cluster_UserModule</title>
<polygon fill="none" stroke="black" stroke-dasharray="1,5" points="266,-70 266,-138 484,-138 484,-70 266,-70"/>
</g>
<g id="clust36" class="cluster">
<title>cluster_UserModule_providers</title>
<polygon fill="none" stroke="black" points="274,-78 274,-130 476,-130 476,-78 274,-78"/>
</g>
<!-- AppConfigurationModule -->
<g id="node1" class="node">
<title>AppConfigurationModule</title>
<polygon fill="#8dd3c7" stroke="black" points="449.2,-274 446.2,-278 425.2,-278 422.2,-274 286.8,-274 286.8,-238 449.2,-238 449.2,-274"/>
<text text-anchor="middle" x="368" y="-251.8" font-family="Times,serif" font-size="14.00">AppConfigurationModule</text>
</g>
<!-- AppModule -->
<g id="node4" class="node">
<title>AppModule</title>
<polygon fill="#8dd3c7" stroke="black" points="292.66,-404 289.66,-408 268.66,-408 265.66,-404 209.34,-404 209.34,-368 292.66,-368 292.66,-404"/>
<text text-anchor="middle" x="251" y="-381.8" font-family="Times,serif" font-size="14.00">AppModule</text>
</g>
<!-- AppConfigurationModule&#45;&gt;AppModule -->
<g id="edge1" class="edge">
<title>AppConfigurationModule&#45;&gt;AppModule</title>
<path fill="none" stroke="black" d="M286.75,-256C281.42,-256 278.13,-256 278.13,-256 278.13,-256 278.13,-357.92 278.13,-357.92"/>
<polygon fill="black" stroke="black" points="274.63,-357.92 278.13,-367.92 281.63,-357.92 274.63,-357.92"/>
</g>
<!-- ExpenseManagerModule -->
<g id="node2" class="node">
<title>ExpenseManagerModule</title>
<polygon fill="#8dd3c7" stroke="black" points="269.23,-274 266.23,-278 245.23,-278 242.23,-274 112.77,-274 112.77,-238 269.23,-238 269.23,-274"/>
<text text-anchor="middle" x="191" y="-251.8" font-family="Times,serif" font-size="14.00">ExpenseManagerModule</text>
</g>
<!-- IamModule -->
<g id="node3" class="node">
<title>IamModule</title>
<polygon fill="#8dd3c7" stroke="black" points="231.82,-339 228.82,-343 207.82,-343 204.82,-339 150.18,-339 150.18,-303 231.82,-303 231.82,-339"/>
<text text-anchor="middle" x="191" y="-316.8" font-family="Times,serif" font-size="14.00">IamModule</text>
</g>
<!-- ExpenseManagerModule&#45;&gt;IamModule -->
<g id="edge7" class="edge">
<title>ExpenseManagerModule&#45;&gt;IamModule</title>
<path fill="none" stroke="black" d="M191,-274.11C191,-274.11 191,-292.99 191,-292.99"/>
<polygon fill="black" stroke="black" points="187.5,-292.99 191,-302.99 194.5,-292.99 187.5,-292.99"/>
</g>
<!-- ExpenseManagerModule&#45;&gt;AppModule -->
<g id="edge2" class="edge">
<title>ExpenseManagerModule&#45;&gt;AppModule</title>
<path fill="none" stroke="black" d="M250.51,-274.08C250.51,-274.08 250.51,-357.66 250.51,-357.66"/>
<polygon fill="black" stroke="black" points="247.01,-357.66 250.51,-367.66 254.01,-357.66 247.01,-357.66"/>
</g>
<!-- IamModule&#45;&gt;AppModule -->
<g id="edge3" class="edge">
<title>IamModule&#45;&gt;AppModule</title>
<path fill="none" stroke="black" d="M220.41,-339.11C220.41,-339.11 220.41,-357.99 220.41,-357.99"/>
<polygon fill="black" stroke="black" points="216.91,-357.99 220.41,-367.99 223.91,-357.99 216.91,-357.99"/>
</g>
<!-- ExpenseModule -->
<g id="node5" class="node">
<title>ExpenseModule</title>
<polygon fill="#8dd3c7" stroke="black" points="207.48,-198 204.48,-202 183.48,-202 180.48,-198 100.52,-198 100.52,-162 207.48,-162 207.48,-198"/>
<text text-anchor="middle" x="154" y="-175.8" font-family="Times,serif" font-size="14.00">ExpenseModule</text>
</g>
<!-- ExpenseModule&#45;&gt;ExpenseManagerModule -->
<g id="edge4" class="edge">
<title>ExpenseModule&#45;&gt;ExpenseManagerModule</title>
<path fill="none" stroke="black" d="M160.06,-198.01C160.06,-198.01 160.06,-227.85 160.06,-227.85"/>
<polygon fill="black" stroke="black" points="156.56,-227.85 160.06,-237.85 163.56,-227.85 156.56,-227.85"/>
</g>
<!-- UserModule -->
<g id="node6" class="node">
<title>UserModule</title>
<polygon fill="#8dd3c7" stroke="black" points="310.98,-198 307.98,-202 286.98,-202 283.98,-198 225.02,-198 225.02,-162 310.98,-162 310.98,-198"/>
<text text-anchor="middle" x="268" y="-175.8" font-family="Times,serif" font-size="14.00">UserModule</text>
</g>
<!-- UserModule&#45;&gt;ExpenseManagerModule -->
<g id="edge5" class="edge">
<title>UserModule&#45;&gt;ExpenseManagerModule</title>
<path fill="none" stroke="black" d="M247.19,-198.01C247.19,-198.01 247.19,-227.85 247.19,-227.85"/>
<polygon fill="black" stroke="black" points="243.69,-227.85 247.19,-237.85 250.69,-227.85 243.69,-227.85"/>
</g>
<!-- ExpenseManagerService -->
<g id="node7" class="node">
<title>ExpenseManagerService</title>
<ellipse fill="#fdb462" stroke="black" cx="135" cy="-104" rx="107.04" ry="18"/>
<text text-anchor="middle" x="135" y="-99.8" font-family="Times,serif" font-size="14.00">ExpenseManagerService</text>
</g>
<!-- ExpenseManagerService&#45;&gt;ExpenseModule -->
<g id="edge6" class="edge">
<title>ExpenseManagerService&#45;&gt;ExpenseModule</title>
<path fill="none" stroke="black" d="M154,-122.01C154,-122.01 154,-151.85 154,-151.85"/>
<polygon fill="black" stroke="black" points="150.5,-151.85 154,-161.85 157.5,-151.85 150.5,-151.85"/>
</g>
<!-- UserManagerService -->
<g id="node8" class="node">
<title>UserManagerService</title>
<ellipse fill="#fdb462" stroke="black" cx="375" cy="-104" rx="92.57" ry="18"/>
<text text-anchor="middle" x="375" y="-99.8" font-family="Times,serif" font-size="14.00">UserManagerService</text>
</g>
<!-- UserManagerService&#45;&gt;UserModule -->
<g id="edge8" class="edge">
<title>UserManagerService&#45;&gt;UserModule</title>
<path fill="none" stroke="black" d="M296.73,-113.63C296.73,-113.63 296.73,-151.75 296.73,-151.75"/>
<polygon fill="black" stroke="black" points="293.23,-151.75 296.73,-161.75 300.23,-151.75 293.23,-151.75"/>
</g>
</g>
</svg>
