<?xml version="1.0" encoding="UTF-8" standalone="no"?>
<!DOCTYPE svg PUBLIC "-//W3C//DTD SVG 1.1//EN"
 "http://www.w3.org/Graphics/SVG/1.1/DTD/svg11.dtd">
<!-- Generated by graphviz version 2.47.0 (20210316.0004)
 -->
<!-- Title: dependencies Pages: 1 -->
<svg width="1215pt" height="355pt"
 viewBox="0.00 0.00 1215.00 355.00" xmlns="http://www.w3.org/2000/svg" xmlns:xlink="http://www.w3.org/1999/xlink">
<g id="graph0" class="graph" transform="scale(1 1) rotate(0) translate(4 351)">
<title>dependencies</title>
<polygon fill="white" stroke="transparent" points="-4,4 -4,-351 1211,-351 1211,4 -4,4"/>
<text text-anchor="start" x="582.51" y="-42.4" font-family="Times-12" font-weight="bold" font-size="14.00">Legend</text>
<polygon fill="#ffffb3" stroke="transparent" points="369.5,-10 369.5,-30 389.5,-30 389.5,-10 369.5,-10"/>
<text text-anchor="start" x="393.13" y="-15.4" font-family="Times-12" font-size="14.00"> &#160;Declarations</text>
<polygon fill="#8dd3c7" stroke="transparent" points="482.5,-10 482.5,-30 502.5,-30 502.5,-10 482.5,-10"/>
<text text-anchor="start" x="506.23" y="-15.4" font-family="Times-12" font-size="14.00"> &#160;Module</text>
<polygon fill="#80b1d3" stroke="transparent" points="568.5,-10 568.5,-30 588.5,-30 588.5,-10 568.5,-10"/>
<text text-anchor="start" x="592.28" y="-15.4" font-family="Times-12" font-size="14.00"> &#160;Bootstrap</text>
<polygon fill="#fdb462" stroke="transparent" points="665.5,-10 665.5,-30 685.5,-30 685.5,-10 665.5,-10"/>
<text text-anchor="start" x="689.17" y="-15.4" font-family="Times-12" font-size="14.00"> &#160;Providers</text>
<polygon fill="#fb8072" stroke="transparent" points="761.5,-10 761.5,-30 781.5,-30 781.5,-10 761.5,-10"/>
<text text-anchor="start" x="785.23" y="-15.4" font-family="Times-12" font-size="14.00"> &#160;Exports</text>
<g id="clust7" class="cluster">
<title>cluster_AppModule</title>
<polygon fill="none" stroke="black" stroke-dasharray="1,5" points="322,-214 322,-339 784,-339 784,-214 322,-214"/>
</g>
<g id="clust9" class="cluster">
<title>cluster_AppModule_imports</title>
<polygon fill="none" stroke="black" points="330,-222 330,-274 776,-274 776,-222 330,-222"/>
</g>
<g id="clust13" class="cluster">
<title>cluster_ExpenseModule</title>
<polygon fill="none" stroke="black" stroke-dasharray="1,5" points="8,-70 8,-282 186,-282 186,-70 8,-70"/>
</g>
<g id="clust16" class="cluster">
<title>cluster_ExpenseModule_exports</title>
<polygon fill="none" stroke="black" points="44,-222 44,-274 168,-274 168,-222 44,-222"/>
</g>
<g id="clust18" class="cluster">
<title>cluster_ExpenseModule_providers</title>
<polygon fill="none" stroke="black" points="16,-78 16,-130 178,-130 178,-78 16,-78"/>
</g>
<g id="clust19" class="cluster">
<title>cluster_ExpenseTrackerModule</title>
<polygon fill="none" stroke="black" stroke-dasharray="1,5" points="386,-70 386,-206 758,-206 758,-70 386,-70"/>
</g>
<g id="clust21" class="cluster">
<title>cluster_ExpenseTrackerModule_imports</title>
<polygon fill="none" stroke="black" points="411,-146 411,-198 513,-198 513,-146 411,-146"/>
</g>
<g id="clust24" class="cluster">
<title>cluster_ExpenseTrackerModule_providers</title>
<polygon fill="none" stroke="black" points="394,-78 394,-130 750,-130 750,-78 394,-78"/>
</g>
<g id="clust25" class="cluster">
<title>cluster_IamModule</title>
<polygon fill="none" stroke="black" stroke-dasharray="1,5" points="766,-138 766,-206 1054,-206 1054,-138 766,-138"/>
</g>
<g id="clust27" class="cluster">
<title>cluster_IamModule_imports</title>
<polygon fill="none" stroke="black" points="916,-146 916,-198 1046,-198 1046,-146 916,-146"/>
</g>
<g id="clust30" class="cluster">
<title>cluster_IamModule_providers</title>
<polygon fill="none" stroke="black" points="774,-146 774,-198 908,-198 908,-146 774,-146"/>
</g>
<g id="clust31" class="cluster">
<title>cluster_PasswordModule</title>
<polygon fill="none" stroke="black" stroke-dasharray="1,5" points="859,-214 859,-282 1199,-282 1199,-214 859,-214"/>
</g>
<g id="clust34" class="cluster">
<title>cluster_PasswordModule_exports</title>
<polygon fill="none" stroke="black" points="1053,-222 1053,-274 1191,-274 1191,-222 1053,-222"/>
</g>
<g id="clust36" class="cluster">
<title>cluster_PasswordModule_providers</title>
<polygon fill="none" stroke="black" points="867,-222 867,-274 1045,-274 1045,-222 867,-222"/>
</g>
<g id="clust37" class="cluster">
<title>cluster_UserModule</title>
<polygon fill="none" stroke="black" stroke-dasharray="1,5" points="194,-214 194,-282 314,-282 314,-214 194,-214"/>
</g>
<g id="clust40" class="cluster">
<title>cluster_UserModule_exports</title>
<polygon fill="none" stroke="black" points="202,-222 202,-274 306,-274 306,-222 202,-222"/>
</g>
<!-- AppConfigurationModule -->
<g id="node1" class="node">
<title>AppConfigurationModule</title>
<polygon fill="#8dd3c7" stroke="black" points="500.2,-266 497.2,-270 476.2,-270 473.2,-266 337.8,-266 337.8,-230 500.2,-230 500.2,-266"/>
<text text-anchor="middle" x="419" y="-243.8" font-family="Times,serif" font-size="14.00">AppConfigurationModule</text>
</g>
<!-- AppModule -->
<g id="node4" class="node">
<title>AppModule</title>
<polygon fill="#8dd3c7" stroke="black" points="634.66,-331 631.66,-335 610.66,-335 607.66,-331 551.34,-331 551.34,-295 634.66,-295 634.66,-331"/>
<text text-anchor="middle" x="593" y="-308.8" font-family="Times,serif" font-size="14.00">AppModule</text>
</g>
<!-- AppConfigurationModule&#45;&gt;AppModule -->
<g id="edge1" class="edge">
<title>AppConfigurationModule&#45;&gt;AppModule</title>
<path fill="none" stroke="black" d="M419,-266.11C419,-285.34 419,-313 419,-313 419,-313 541.32,-313 541.32,-313"/>
<polygon fill="black" stroke="black" points="541.32,-316.5 551.32,-313 541.32,-309.5 541.32,-316.5"/>
</g>
<!-- ExpenseTrackerModule -->
<g id="node2" class="node">
<title>ExpenseTrackerModule</title>
<polygon fill="#8dd3c7" stroke="black" points="668.49,-266 665.49,-270 644.49,-270 641.49,-266 517.51,-266 517.51,-230 668.49,-230 668.49,-266"/>
<text text-anchor="middle" x="593" y="-243.8" font-family="Times,serif" font-size="14.00">ExpenseTrackerModule</text>
</g>
<!-- ExpenseTrackerModule&#45;&gt;AppModule -->
<g id="edge2" class="edge">
<title>ExpenseTrackerModule&#45;&gt;AppModule</title>
<path fill="none" stroke="black" d="M593,-266.11C593,-266.11 593,-284.99 593,-284.99"/>
<polygon fill="black" stroke="black" points="589.5,-284.99 593,-294.99 596.5,-284.99 589.5,-284.99"/>
</g>
<!-- IamModule -->
<g id="node3" class="node">
<title>IamModule</title>
<polygon fill="#8dd3c7" stroke="black" points="767.82,-266 764.82,-270 743.82,-270 740.82,-266 686.18,-266 686.18,-230 767.82,-230 767.82,-266"/>
<text text-anchor="middle" x="727" y="-243.8" font-family="Times,serif" font-size="14.00">IamModule</text>
</g>
<!-- IamModule&#45;&gt;AppModule -->
<g id="edge3" class="edge">
<title>IamModule&#45;&gt;AppModule</title>
<path fill="none" stroke="black" d="M727,-266.11C727,-285.34 727,-313 727,-313 727,-313 644.66,-313 644.66,-313"/>
<polygon fill="black" stroke="black" points="644.66,-309.5 634.66,-313 644.66,-316.5 644.66,-309.5"/>
</g>
<!-- ExpenseService  -->
<g id="node5" class="node">
<title>ExpenseService </title>
<polygon fill="#fb8072" stroke="black" points="160.4,-266 51.6,-266 51.6,-230 160.4,-230 160.4,-266"/>
<text text-anchor="middle" x="106" y="-243.8" font-family="Times,serif" font-size="14.00">ExpenseService </text>
</g>
<!-- ExpenseModule -->
<g id="node6" class="node">
<title>ExpenseModule</title>
<polygon fill="#8dd3c7" stroke="black" points="159.48,-190 156.48,-194 135.48,-194 132.48,-190 52.52,-190 52.52,-154 159.48,-154 159.48,-190"/>
<text text-anchor="middle" x="106" y="-167.8" font-family="Times,serif" font-size="14.00">ExpenseModule</text>
</g>
<!-- ExpenseModule&#45;&gt;ExpenseTrackerModule -->
<g id="edge6" class="edge">
<title>ExpenseModule&#45;&gt;ExpenseTrackerModule</title>
<path fill="none" stroke="black" d="M123.83,-190.24C123.83,-197.43 123.83,-204 123.83,-204 123.83,-204 524.24,-204 524.24,-204 524.24,-204 524.24,-219.85 524.24,-219.85"/>
<polygon fill="black" stroke="black" points="520.74,-219.85 524.24,-229.85 527.74,-219.85 520.74,-219.85"/>
</g>
<!-- ExpenseModule&#45;&gt;ExpenseService  -->
<g id="edge4" class="edge">
<title>ExpenseModule&#45;&gt;ExpenseService </title>
<path fill="none" stroke="black" stroke-dasharray="5,2" d="M88.17,-190.01C88.17,-190.01 88.17,-219.85 88.17,-219.85"/>
<polygon fill="black" stroke="black" points="84.67,-219.85 88.17,-229.85 91.67,-219.85 84.67,-219.85"/>
</g>
<!-- ExpenseService -->
<g id="node7" class="node">
<title>ExpenseService</title>
<ellipse fill="#fdb462" stroke="black" cx="97" cy="-104" rx="72.91" ry="18"/>
<text text-anchor="middle" x="97" y="-99.8" font-family="Times,serif" font-size="14.00">ExpenseService</text>
</g>
<!-- ExpenseService&#45;&gt;ExpenseModule -->
<g id="edge5" class="edge">
<title>ExpenseService&#45;&gt;ExpenseModule</title>
<path fill="none" stroke="black" d="M106,-121.87C106,-121.87 106,-143.54 106,-143.54"/>
<polygon fill="black" stroke="black" points="102.5,-143.54 106,-153.54 109.5,-143.54 102.5,-143.54"/>
</g>
<!-- UserModule -->
<g id="node8" class="node">
<title>UserModule</title>
<polygon fill="#8dd3c7" stroke="black" points="504.98,-190 501.98,-194 480.98,-194 477.98,-190 419.02,-190 419.02,-154 504.98,-154 504.98,-190"/>
<text text-anchor="middle" x="462" y="-167.8" font-family="Times,serif" font-size="14.00">UserModule</text>
</g>
<!-- UserModule&#45;&gt;ExpenseTrackerModule -->
<g id="edge7" class="edge">
<title>UserModule&#45;&gt;ExpenseTrackerModule</title>
<path fill="none" stroke="black" d="M505.23,-172C518.77,-172 530.26,-172 530.26,-172 530.26,-172 530.26,-219.99 530.26,-219.99"/>
<polygon fill="black" stroke="black" points="526.76,-219.99 530.26,-229.99 533.76,-219.99 526.76,-219.99"/>
</g>
<!-- UserModule&#45;&gt;IamModule -->
<g id="edge11" class="edge">
<title>UserModule&#45;&gt;IamModule</title>
<path fill="none" stroke="black" d="M505.13,-163C574.9,-163 704.8,-163 704.8,-163 704.8,-163 704.8,-219.97 704.8,-219.97"/>
<polygon fill="black" stroke="black" points="701.3,-219.97 704.8,-229.97 708.3,-219.97 701.3,-219.97"/>
</g>
<!-- UserService  -->
<g id="node15" class="node">
<title>UserService </title>
<polygon fill="#fb8072" stroke="black" points="297.9,-266 210.1,-266 210.1,-230 297.9,-230 297.9,-266"/>
<text text-anchor="middle" x="254" y="-243.8" font-family="Times,serif" font-size="14.00">UserService </text>
</g>
<!-- UserModule&#45;&gt;UserService  -->
<g id="edge16" class="edge">
<title>UserModule&#45;&gt;UserService </title>
<path fill="none" stroke="black" stroke-dasharray="5,2" d="M418.9,-172C357.98,-172 254,-172 254,-172 254,-172 254,-219.99 254,-219.99"/>
<polygon fill="black" stroke="black" points="250.5,-219.99 254,-229.99 257.5,-219.99 250.5,-219.99"/>
</g>
<!-- ExpenseTrackerService -->
<g id="node9" class="node">
<title>ExpenseTrackerService</title>
<ellipse fill="#fdb462" stroke="black" cx="639" cy="-104" rx="102.95" ry="18"/>
<text text-anchor="middle" x="639" y="-99.8" font-family="Times,serif" font-size="14.00">ExpenseTrackerService</text>
</g>
<!-- ExpenseTrackerService&#45;&gt;ExpenseTrackerModule -->
<g id="edge8" class="edge">
<title>ExpenseTrackerService&#45;&gt;ExpenseTrackerModule</title>
<path fill="none" stroke="black" d="M602.26,-121.08C602.26,-121.08 602.26,-219.58 602.26,-219.58"/>
<polygon fill="black" stroke="black" points="598.76,-219.58 602.26,-229.58 605.76,-219.58 598.76,-219.58"/>
</g>
<!-- UserService -->
<g id="node10" class="node">
<title>UserService</title>
<ellipse fill="#fdb462" stroke="black" cx="460" cy="-104" rx="58.44" ry="18"/>
<text text-anchor="middle" x="460" y="-99.8" font-family="Times,serif" font-size="14.00">UserService</text>
</g>
<!-- UserService&#45;&gt;ExpenseTrackerModule -->
<g id="edge9" class="edge">
<title>UserService&#45;&gt;ExpenseTrackerModule</title>
<path fill="none" stroke="black" d="M513.5,-111.34C513.5,-140.68 513.5,-248 513.5,-248 513.5,-248 513.88,-248 513.88,-248"/>
<polygon fill="black" stroke="black" points="507.33,-251.5 517.33,-248 507.33,-244.5 507.33,-251.5"/>
</g>
<!-- UserService&#45;&gt;IamModule -->
<g id="edge13" class="edge">
<title>UserService&#45;&gt;IamModule</title>
<path fill="none" stroke="black" d="M509.24,-113.65C509.24,-123.7 509.24,-138 509.24,-138 509.24,-138 723.26,-138 723.26,-138 723.26,-138 723.26,-219.84 723.26,-219.84"/>
<polygon fill="black" stroke="black" points="719.76,-219.84 723.26,-229.84 726.76,-219.84 719.76,-219.84"/>
</g>
<!-- UserService&#45;&gt;UserModule -->
<g id="edge17" class="edge">
<title>UserService&#45;&gt;UserModule</title>
<path fill="none" stroke="black" d="M462,-122.22C462,-122.22 462,-143.73 462,-143.73"/>
<polygon fill="black" stroke="black" points="458.5,-143.73 462,-153.73 465.5,-143.73 458.5,-143.73"/>
</g>
<!-- PasswordModule -->
<g id="node11" class="node">
<title>PasswordModule</title>
<polygon fill="#8dd3c7" stroke="black" points="1037.7,-190 1034.7,-194 1013.7,-194 1010.7,-190 924.3,-190 924.3,-154 1037.7,-154 1037.7,-190"/>
<text text-anchor="middle" x="981" y="-167.8" font-family="Times,serif" font-size="14.00">PasswordModule</text>
</g>
<!-- PasswordModule&#45;&gt;IamModule -->
<g id="edge10" class="edge">
<title>PasswordModule&#45;&gt;IamModule</title>
<path fill="none" stroke="black" d="M962.03,-190.04C962.03,-202.56 962.03,-217 962.03,-217 962.03,-217 759.01,-217 759.01,-217 759.01,-217 759.01,-219.97 759.01,-219.97"/>
<polygon fill="black" stroke="black" points="755.51,-219.97 759.01,-229.97 762.51,-219.97 755.51,-219.97"/>
</g>
<!-- PasswordProvider  -->
<g id="node13" class="node">
<title>PasswordProvider </title>
<polygon fill="#fb8072" stroke="black" points="1182.86,-266 1061.14,-266 1061.14,-230 1182.86,-230 1182.86,-266"/>
<text text-anchor="middle" x="1122" y="-243.8" font-family="Times,serif" font-size="14.00">PasswordProvider </text>
</g>
<!-- PasswordModule&#45;&gt;PasswordProvider  -->
<g id="edge14" class="edge">
<title>PasswordModule&#45;&gt;PasswordProvider </title>
<path fill="none" stroke="black" stroke-dasharray="5,2" d="M1037.94,-172C1077.08,-172 1122,-172 1122,-172 1122,-172 1122,-219.99 1122,-219.99"/>
<polygon fill="black" stroke="black" points="1118.5,-219.99 1122,-229.99 1125.5,-219.99 1118.5,-219.99"/>
</g>
<!-- AuthService -->
<g id="node12" class="node">
<title>AuthService</title>
<ellipse fill="#fdb462" stroke="black" cx="841" cy="-172" rx="59.11" ry="18"/>
<text text-anchor="middle" x="841" y="-167.8" font-family="Times,serif" font-size="14.00">AuthService</text>
</g>
<!-- AuthService&#45;&gt;IamModule -->
<g id="edge12" class="edge">
<title>AuthService&#45;&gt;IamModule</title>
<path fill="none" stroke="black" d="M789.59,-181C769.14,-181 750.37,-181 750.37,-181 750.37,-181 750.37,-219.69 750.37,-219.69"/>
<polygon fill="black" stroke="black" points="746.87,-219.69 750.37,-229.69 753.87,-219.69 746.87,-219.69"/>
</g>
<!-- PasswordProvider -->
<g id="node14" class="node">
<title>PasswordProvider</title>
<ellipse fill="#fdb462" stroke="black" cx="956" cy="-248" rx="81.1" ry="18"/>
<text text-anchor="middle" x="956" y="-243.8" font-family="Times,serif" font-size="14.00">PasswordProvider</text>
</g>
<!-- PasswordProvider&#45;&gt;PasswordModule -->
<g id="edge15" class="edge">
<title>PasswordProvider&#45;&gt;PasswordModule</title>
<path fill="none" stroke="black" d="M999.67,-232.62C999.67,-232.62 999.67,-200.03 999.67,-200.03"/>
<polygon fill="black" stroke="black" points="1003.17,-200.03 999.67,-190.03 996.17,-200.03 1003.17,-200.03"/>
</g>
</g>
</svg>
