<?xml version="1.0" encoding="UTF-8" standalone="no"?>
<!DOCTYPE svg PUBLIC "-//W3C//DTD SVG 1.1//EN"
 "http://www.w3.org/Graphics/SVG/1.1/DTD/svg11.dtd">
<!-- Generated by graphviz version 2.47.0 (20210316.0004)
 -->
<!-- Title: dependencies Pages: 1 -->
<svg width="504pt" height="211pt"
 viewBox="0.00 0.00 504.00 211.00" xmlns="http://www.w3.org/2000/svg" xmlns:xlink="http://www.w3.org/1999/xlink">
<g id="graph0" class="graph" transform="scale(1 1) rotate(0) translate(4 207)">
<title>dependencies</title>
<polygon fill="white" stroke="transparent" points="-4,4 -4,-207 500,-207 500,4 -4,4"/>
<text text-anchor="start" x="227.01" y="-42.4" font-family="Times-12" font-weight="bold" font-size="14.00">Legend</text>
<polygon fill="#ffffb3" stroke="transparent" points="14,-10 14,-30 34,-30 34,-10 14,-10"/>
<text text-anchor="start" x="37.63" y="-15.4" font-family="Times-12" font-size="14.00"> &#160;Declarations</text>
<polygon fill="#8dd3c7" stroke="transparent" points="127,-10 127,-30 147,-30 147,-10 127,-10"/>
<text text-anchor="start" x="150.73" y="-15.4" font-family="Times-12" font-size="14.00"> &#160;Module</text>
<polygon fill="#80b1d3" stroke="transparent" points="213,-10 213,-30 233,-30 233,-10 213,-10"/>
<text text-anchor="start" x="236.78" y="-15.4" font-family="Times-12" font-size="14.00"> &#160;Bootstrap</text>
<polygon fill="#fdb462" stroke="transparent" points="310,-10 310,-30 330,-30 330,-10 310,-10"/>
<text text-anchor="start" x="333.67" y="-15.4" font-family="Times-12" font-size="14.00"> &#160;Providers</text>
<polygon fill="#fb8072" stroke="transparent" points="406,-10 406,-30 426,-30 426,-10 406,-10"/>
<text text-anchor="start" x="429.73" y="-15.4" font-family="Times-12" font-size="14.00"> &#160;Exports</text>
<g id="clust1" class="cluster">
<title>cluster_AppModule</title>
<polygon fill="none" stroke="black" stroke-dasharray="1,5" points="17,-70 17,-195 479,-195 479,-70 17,-70"/>
</g>
<g id="clust3" class="cluster">
<title>cluster_AppModule_imports</title>
<polygon fill="none" stroke="black" points="25,-78 25,-130 471,-130 471,-78 25,-78"/>
</g>
<!-- AppConfigurationModule -->
<g id="node1" class="node">
<title>AppConfigurationModule</title>
<polygon fill="#8dd3c7" stroke="black" points="463.2,-122 460.2,-126 439.2,-126 436.2,-122 300.8,-122 300.8,-86 463.2,-86 463.2,-122"/>
<text text-anchor="middle" x="382" y="-99.8" font-family="Times,serif" font-size="14.00">AppConfigurationModule</text>
</g>
<!-- AppModule -->
<g id="node4" class="node">
<title>AppModule</title>
<polygon fill="#8dd3c7" stroke="black" points="249.66,-187 246.66,-191 225.66,-191 222.66,-187 166.34,-187 166.34,-151 249.66,-151 249.66,-187"/>
<text text-anchor="middle" x="208" y="-164.8" font-family="Times,serif" font-size="14.00">AppModule</text>
</g>
<!-- AppConfigurationModule&#45;&gt;AppModule -->
<g id="edge1" class="edge">
<title>AppConfigurationModule&#45;&gt;AppModule</title>
<path fill="none" stroke="black" d="M382,-122.11C382,-141.34 382,-169 382,-169 382,-169 259.68,-169 259.68,-169"/>
<polygon fill="black" stroke="black" points="259.68,-165.5 249.68,-169 259.68,-172.5 259.68,-165.5"/>
</g>
<!-- ExpenseTrackerModule -->
<g id="node2" class="node">
<title>ExpenseTrackerModule</title>
<polygon fill="#8dd3c7" stroke="black" points="283.49,-122 280.49,-126 259.49,-126 256.49,-122 132.51,-122 132.51,-86 283.49,-86 283.49,-122"/>
<text text-anchor="middle" x="208" y="-99.8" font-family="Times,serif" font-size="14.00">ExpenseTrackerModule</text>
</g>
<!-- ExpenseTrackerModule&#45;&gt;AppModule -->
<g id="edge2" class="edge">
<title>ExpenseTrackerModule&#45;&gt;AppModule</title>
<path fill="none" stroke="black" d="M208,-122.11C208,-122.11 208,-140.99 208,-140.99"/>
<polygon fill="black" stroke="black" points="204.5,-140.99 208,-150.99 211.5,-140.99 204.5,-140.99"/>
</g>
<!-- IamModule -->
<g id="node3" class="node">
<title>IamModule</title>
<polygon fill="#8dd3c7" stroke="black" points="114.82,-122 111.82,-126 90.82,-126 87.82,-122 33.18,-122 33.18,-86 114.82,-86 114.82,-122"/>
<text text-anchor="middle" x="74" y="-99.8" font-family="Times,serif" font-size="14.00">IamModule</text>
</g>
<!-- IamModule&#45;&gt;AppModule -->
<g id="edge3" class="edge">
<title>IamModule&#45;&gt;AppModule</title>
<path fill="none" stroke="black" d="M74,-122.11C74,-141.34 74,-169 74,-169 74,-169 156.34,-169 156.34,-169"/>
<polygon fill="black" stroke="black" points="156.34,-172.5 166.34,-169 156.34,-165.5 156.34,-172.5"/>
</g>
</g>
</svg>
